<?xml version="1.0" encoding="utf-8"?>
<!-- Generator: Adobe Illustrator 18.1.1, SVG Export Plug-In . SVG Version: 6.00 Build 0)  -->
<!DOCTYPE svg PUBLIC "-//W3C//DTD SVG 1.1//EN" "http://www.w3.org/Graphics/SVG/1.1/DTD/svg11.dtd">
<svg version="1.1" xmlns="http://www.w3.org/2000/svg" xmlns:xlink="http://www.w3.org/1999/xlink" x="0px" y="0px"
	 viewBox="0 0 500 500" enable-background="new 0 0 500 500" xml:space="preserve">
<g id="Layer_2">
	<circle fill="#333333" cx="250" cy="250" r="250"/>
</g>
<g id="gift">
	<g>
		<path fill="#ECF0F1" d="M107,200.1c0-4.4,3.6-8,8-8h267.2c4.4,0,8,3.6,8,8v196.3c0,4.4-3.6,8-8,8H115c-4.4,0-8-3.6-8-8V200.1z"/>
	</g>
	<g>
		<path fill="#ECF0F1" d="M90.3,145.1c0-4.4,3.6-8,8-8H399c4.4,0,8,3.6,8,8v34.5c0,4.4-3.6,8-8,8H98.3c-4.4,0-8-3.6-8-8V145.1z"/>
	</g>
	<g>
		<path fill="none" stroke="#ECF0F1" stroke-width="8" stroke-miterlimit="10" d="M246.4,132.1c1.2,2.7-1.4,4.3-5.7,3.6
			c0,0-95-17-78.4-45.8s49.9-20.3,49.9-20.3c4.3,1.1,9.2,5.3,11,9.3l17.9,40.9C242.8,123.9,245.2,129.4,246.4,132.1z"/>
	</g>
	<g>
		<path fill="none" stroke="#ECF0F1" stroke-width="8" stroke-miterlimit="10" d="M247,133.1c-1.3,2.8,1.2,4.5,5.5,3.8
			c0,0,103.3-17.7,85.3-47.5s-54.5-20.9-54.5-20.9c-4.3,1-9.3,5.2-11.1,9.2l-19.6,42.9C250.9,124.7,248.3,130.3,247,133.1z"/>
	</g>
	<line fill="#ECF0F1" stroke="#333333" stroke-width="8" stroke-miterlimit="10" x1="27.2" y1="192.1" x2="453.7" y2="192.1"/>
	<path fill="#333333" stroke="#ECF0F1" stroke-width="8" stroke-miterlimit="10" d="M250,258.1"/>
	<path fill="#333333" d="M217.6,273.1"/>
	<path fill="#ECF0F1" d="M217.5,70.2"/>
	<path fill="none" stroke="#ECF0F1" stroke-width="8" stroke-miterlimit="10" d="M247.1,24.2"/>
</g>
<g id="Layer_3">
	<path fill="#ECF0F1" stroke="#333333" stroke-width="8" stroke-miterlimit="10" d="M249.7,222.1c0,0-45,3.2-44.1,47
		c0,0,4.2,17.6,10.5,25.2c6.4,7.5,11,14.7,11.5,24.3"/>
	<path fill="#ECF0F1" stroke="#333333" stroke-width="8" stroke-miterlimit="10" d="M248.6,222.1c0,0,47.4,3.2,46.4,47
		c0,0-4.4,17.6-11.1,25.2c-6.7,7.5-11.6,14.7-12.1,24.3"/>
	<line fill="#ECF0F1" stroke="#333333" stroke-width="8" stroke-miterlimit="10" x1="227.7" y1="332.1" x2="271.8" y2="332.1"/>
	<line fill="#ECF0F1" stroke="#333333" stroke-width="8" stroke-miterlimit="10" x1="271.8" y1="348" x2="227.7" y2="348"/>
	<line fill="#ECF0F1" stroke="#333333" stroke-width="8" stroke-miterlimit="10" x1="271.8" y1="362.4" x2="227.7" y2="362.4"/>
	<line fill="#ECF0F1" stroke="#333333" stroke-width="8" stroke-miterlimit="10" x1="204.6" y1="234.8" x2="183.2" y2="218.1"/>
	<line fill="#ECF0F1" stroke="#333333" stroke-width="8" stroke-miterlimit="10" x1="295" y1="234.8" x2="314.7" y2="218.1"/>
	<line fill="#ECF0F1" stroke="#333333" stroke-width="8" stroke-miterlimit="10" x1="193.9" y1="265.1" x2="165.8" y2="265.1"/>
	<line fill="#ECF0F1" stroke="#333333" stroke-width="8" stroke-miterlimit="10" x1="201.5" y1="298.3" x2="183.2" y2="313"/>
	<line fill="#ECF0F1" stroke="#333333" stroke-width="8" stroke-miterlimit="10" x1="304.9" y1="265.1" x2="331.4" y2="265.1"/>
	<line fill="#ECF0F1" stroke="#333333" stroke-width="8" stroke-miterlimit="10" x1="295" y1="301.8" x2="314.7" y2="313"/>
</g>
</svg>
