<?xml version="1.0" encoding="utf-8"?>
<!-- Generator: Adobe Illustrator 18.1.1, SVG Export Plug-In . SVG Version: 6.00 Build 0)  -->
<!DOCTYPE svg PUBLIC "-//W3C//DTD SVG 1.1//EN" "http://www.w3.org/Graphics/SVG/1.1/DTD/svg11.dtd">
<svg version="1.1" xmlns="http://www.w3.org/2000/svg" xmlns:xlink="http://www.w3.org/1999/xlink" x="0px" y="0px"
	 viewBox="0 0 500 500" enable-background="new 0 0 500 500" xml:space="preserve">
<g id="Layer_2">
	<circle fill="#333333" cx="250" cy="250" r="250"/>
</g>
<g id="gift">
	<g>
		<path fill="#ECF0F1" d="M103.9,102c0-4.4,3.6-8,8-8h276.1c4.4,0,8,3.6,8,8v296c0,4.4-3.6,8-8,8H111.9c-4.4,0-8-3.6-8-8V102z"/>
	</g>
	<path fill="#333333" stroke="#ECF0F1" stroke-width="8" stroke-miterlimit="10" d="M250,258.1"/>
	<path fill="#333333" d="M217.6,273.1"/>
	<path fill="#ECF0F1" d="M217.5,70.2"/>
	<path fill="none" stroke="#ECF0F1" stroke-width="8" stroke-miterlimit="10" d="M247.1,24.2"/>
	<g>
		<path fill="#ECF0F1" d="M168.5,131.7c0,4.4-3.6,8-8,8h-16.4c-4.4,0-8-3.6-8-8V92.5c0-4.4,3.6-8,8-8h16.4c4.4,0,8,3.6,8,8V131.7z"
			/>
		<path fill="none" stroke="#333333" stroke-width="8" stroke-miterlimit="10" d="M168.5,131.7c0,4.4-3.6,8-8,8h-16.4
			c-4.4,0-8-3.6-8-8V92.5c0-4.4,3.6-8,8-8h16.4c4.4,0,8,3.6,8,8V131.7z"/>
	</g>
	<g>
		<path fill="#ECF0F1" d="M365.6,131.7c0,4.4-3.6,8-8,8h-16.4c-4.4,0-8-3.6-8-8V92.5c0-4.4,3.6-8,8-8h16.4c4.4,0,8,3.6,8,8V131.7z"
			/>
		<path fill="none" stroke="#333333" stroke-width="8" stroke-miterlimit="10" d="M365.6,131.7c0,4.4-3.6,8-8,8h-16.4
			c-4.4,0-8-3.6-8-8V92.5c0-4.4,3.6-8,8-8h16.4c4.4,0,8,3.6,8,8V131.7z"/>
	</g>
	<rect x="114.8" y="179.6" fill="#333333" stroke="#ECF0F1" stroke-width="8" stroke-miterlimit="10" width="65" height="65"/>
	<rect x="183.7" y="179.6" fill="#333333" stroke="#ECF0F1" stroke-width="8" stroke-miterlimit="10" width="65" height="65"/>
	<rect x="248.5" y="179.6" fill="#333333" stroke="#ECF0F1" stroke-width="8" stroke-miterlimit="10" width="65" height="65"/>
	<rect x="317.4" y="179.6" fill="#333333" stroke="#ECF0F1" stroke-width="8" stroke-miterlimit="10" width="65" height="65"/>
	<rect x="114.9" y="240.7" fill="#333333" stroke="#ECF0F1" stroke-width="8" stroke-miterlimit="10" width="65" height="65"/>
	<rect x="183.8" y="240.7" fill="#333333" stroke="#ECF0F1" stroke-width="8" stroke-miterlimit="10" width="65" height="65"/>
	<rect x="248.6" y="240.7" fill="#333333" stroke="#ECF0F1" stroke-width="8" stroke-miterlimit="10" width="65" height="65"/>
	<rect x="317.5" y="240.7" fill="#333333" stroke="#ECF0F1" stroke-width="8" stroke-miterlimit="10" width="65" height="65"/>
	<rect x="114.7" y="301.7" fill="#333333" stroke="#ECF0F1" stroke-width="8" stroke-miterlimit="10" width="65" height="65"/>
	<rect x="183.6" y="301.7" fill="#333333" stroke="#ECF0F1" stroke-width="8" stroke-miterlimit="10" width="65" height="65"/>
	<rect x="248.4" y="301.7" fill="#333333" stroke="#ECF0F1" stroke-width="8" stroke-miterlimit="10" width="65" height="65"/>
	<rect x="317.3" y="301.7" fill="#333333" stroke="#ECF0F1" stroke-width="8" stroke-miterlimit="10" width="65" height="65"/>
	<circle fill="#ECF0F1" cx="357.1" cy="344.5" r="81.2"/>
	<g id="gift_1_">
		<g>
			<path fill="#333333" d="M312.8,329c0-1.6,1.3-2.9,2.9-2.9h88.4c1.6,0,2.9,1.3,2.9,2.9v64.8c0,1.6-1.3,2.9-2.9,2.9h-88.4
				c-1.6,0-2.9-1.3-2.9-2.9V329z"/>
		</g>
		<g>
			<path fill="#333333" d="M307.2,310.7c0-1.6,1.3-2.9,2.9-2.9h99.5c1.6,0,2.9,1.3,2.9,2.9v11c0,1.6-1.3,2.9-2.9,2.9h-99.5
				c-1.6,0-2.9-1.3-2.9-2.9V310.7z"/>
		</g>
		<g>
			<path fill="none" stroke="#333333" stroke-width="4" stroke-miterlimit="10" d="M359.1,306.2c0.4,0.9-0.5,1.4-2.1,1.2
				c0,0-31.4-5.6-25.8-15.2c5.5-9.6,16.4-6.8,16.4-6.8c1.6,0.4,3.3,1.9,4,3.4l5.8,13.2C357.9,303.3,358.7,305.2,359.1,306.2z"/>
		</g>
		<g>
			<path fill="none" stroke="#333333" stroke-width="4" stroke-miterlimit="10" d="M359.3,306.5c-0.4,0.9,0.5,1.5,2.1,1.2
				c0,0,34.1-5.8,28.2-15.8s-17.9-7-17.9-7c-1.6,0.4-3.4,1.9-4,3.3l-6.3,13.9C360.6,303.6,359.7,305.5,359.3,306.5z"/>
		</g>
		<line fill="none" stroke="#ECF0F1" stroke-width="4" stroke-miterlimit="10" x1="286.2" y1="326.1" x2="428" y2="326.1"/>
		<path fill="#333333" stroke="#ECF0F1" stroke-width="8" stroke-miterlimit="10" d="M358.2,337.7"/>
		<path fill="#333333" d="M346.5,343.1"/>
		<path fill="#ECF0F1" d="M346.5,269.9"/>
		<path fill="none" stroke="#ECF0F1" stroke-width="8" stroke-miterlimit="10" d="M357.2,253.3"/>
	</g>
</g>
</svg>
