<?xml version="1.0" encoding="utf-8"?>
<!-- Generator: Adobe Illustrator 18.1.1, SVG Export Plug-In . SVG Version: 6.00 Build 0)  -->
<!DOCTYPE svg PUBLIC "-//W3C//DTD SVG 1.1//EN" "http://www.w3.org/Graphics/SVG/1.1/DTD/svg11.dtd">
<svg version="1.1" xmlns="http://www.w3.org/2000/svg" xmlns:xlink="http://www.w3.org/1999/xlink" x="0px" y="0px"
	 viewBox="0 0 500 500" enable-background="new 0 0 500 500" xml:space="preserve">
<g id="Layer_2">
	<circle fill="#333333" cx="250" cy="250" r="250"/>
</g>
<g id="gift">
	<g>
		<path fill="#ECF0F1" d="M206.3,117.9c3.2-3.1,8.2-3,11.3,0.2l12.6,13c3.1,3.2,3,8.2-0.2,11.3L122.5,246.9c-3.2,3.1-8.2,3-11.3-0.2
			l-12.6-13c-3.1-3.2-3-8.2,0.2-11.3L206.3,117.9z"/>
	</g>
	<path fill="#333333" stroke="#ECF0F1" stroke-width="8" stroke-miterlimit="10" d="M250,258.1"/>
	<path fill="#333333" d="M217.6,273.1"/>
	<path fill="#ECF0F1" d="M217.5,70.2"/>
	<path fill="none" stroke="#ECF0F1" stroke-width="8" stroke-miterlimit="10" d="M247.1,24.2"/>
	<g>
		<path fill="#ECF0F1" d="M398,223c4.4,0,8,3.6,8,8l0,18.1c0,4.4-3.6,8-8,8L102,257c-4.4,0-8-3.6-8-8l0-18.1c0-4.4,3.6-8,8-8
			L398,223z"/>
	</g>
	<g>
		<path fill="#ECF0F1" d="M99.7,257.2c-3.1-3.1-3.1-8.2,0-11.3l12.8-12.9c3.1-3.1,8.2-3.1,11.3,0l106.5,105.6
			c3.1,3.1,3.1,8.2,0,11.3l-12.8,12.9c-3.1,3.1-8.2,3.1-11.3,0L99.7,257.2z"/>
	</g>
</g>
</svg>
